<?xml version="1.0" encoding="utf-8"?>
<!-- Generator: Adobe Illustrator 16.0.0, SVG Export Plug-In . SVG Version: 6.00 Build 0)  -->
<!DOCTYPE svg PUBLIC "-//W3C//DTD SVG 1.1//EN" "http://www.w3.org/Graphics/SVG/1.1/DTD/svg11.dtd">
<svg version="1.1" id="Capa_1" xmlns="http://www.w3.org/2000/svg" xmlns:xlink="http://www.w3.org/1999/xlink" x="0px" y="0px"
	 width="74.017px" height="67.016px" viewBox="0 0 74.017 67.016" enable-background="new 0 0 74.017 67.016" xml:space="preserve">
<g>
	<path fill-rule="evenodd" clip-rule="evenodd" fill="#FE6100" d="M28.426,62.815c-5.122-7.443-4.488-20.424,1.329-27.208
		c9.808-11.439,19.426-13.883,32.091-8.155c1.746,2.138,2.503,4.594,2.683,7.345c0.49,7.487,0.819,14.953-0.274,22.43
		c-0.488,3.34-2.277,6.087-5.281,6.602C48.776,65.577,38.499,66.313,28.426,62.815z"/>
	<path fill-rule="evenodd" clip-rule="evenodd" fill="#C404C2" d="M61.016,24.014c-11.274,0.145-22.728,0.905-31.11-8.975
		c-1.946-3.653-0.091-6.363,2.225-8.957c7.712-3.731,15.695-2.282,23.647-1.195c0.6,0.082,1.211,0.55,1.688,0.981
		C59.814,7.996,62.28,20.75,61.016,24.014z"/>
	<path fill-rule="evenodd" clip-rule="evenodd" fill="#C404C2" d="M28.213,14.139c-5.722,5.342-9.551,12.782-17.806,15.325
		c-4.388,1.351-5.204-0.414-4.355-4.033c1.137-4.852,2.524-9.644,3.803-14.461c6.408-3.01,12.787-6.167,20.22-4.012
		C30.541,9.633,29.89,12.02,28.213,14.139z"/>
	<path fill-rule="evenodd" clip-rule="evenodd" fill="#C404C2" d="M4.112,43.993c0.017-2.16-0.025-4.324,0.063-6.481
		c0.18-4.377,2.787-6.185,6.84-7.222c3.732-0.954,5.223,0.969,7.39,3.338c6.893,7.536,5.198,16.828,5.717,25.633
		c0.179,3.042-2.374,3.218-4.705,2.583c-4.486-1.223-8.943-2.554-13.413-3.841c-0.272-0.352-0.544-0.702-0.817-1.053
		c-1.048-3.573-1.512-7.203-1.075-10.921c3.186-0.191,3.523,2.376,4.322,4.479c1.573,4.139,4.864,6.227,9.154,5.908
		c1.361-0.102,2.524-0.626,2.236-1.994c-0.986-4.688-0.472-9.584-2.012-14.166c-0.418-1.245-1.335-2.283-2.247-3.25
		c-2.948-3.126-5.389-2.605-6.97,1.507C7.7,40.846,7.893,44.034,4.112,43.993z"/>
	<path fill-rule="evenodd" clip-rule="evenodd" fill="#C404C2" d="M4.112,43.993c2.136-1.136,2.865-2.921,3.005-5.319
		c0.145-2.467,1.597-4.27,4.03-5.229c2.801-1.104,3.954,1.162,5.34,2.628c2.321,2.456,4.083,5.235,3.531,8.916
		c-0.481,3.212,0.904,6.212,1.264,9.337c0.36,3.124-1.135,4.018-3.74,3.585c-5.094-0.846-10.584-1.283-10.667-8.557
		c-0.018-1.592-1.442-2.541-2.764-3.324C4.112,45.351,4.112,44.672,4.112,43.993z"/>
</g>
</svg>
